<?xml version="1.0" encoding="UTF-8"?>
<svg xmlns="http://www.w3.org/2000/svg" xmlns:xlink="http://www.w3.org/1999/xlink" width="595pt" height="791pt" viewBox="0 0 595 791" version="1.1">
<g id="surface1">
<path style=" stroke:none;fill-rule:evenodd;fill:rgb(0%,0%,0%);fill-opacity:1;" d="M 78.695313 469.644531 C 92.964844 461.335938 111.035156 466.878906 103.28125 484.738281 C 99.050781 494.484375 73.300781 500.390625 78.695313 469.644531 Z M 131.222656 455.917969 C 157.269531 439.066406 170.453125 490.269531 131.398438 477.761719 Z M 130.242188 438.777344 C 87.78125 451.339844 106.515625 393.941406 132.433594 422.304688 Z M 160.402344 405.105469 C 172.992188 397.1875 195.894531 411.550781 181.070313 426.085938 C 168.28125 438.625 153.992188 426.015625 160.402344 405.105469 Z M 159.042969 388.152344 C 124.59375 397.671875 125.644531 356.816406 157.394531 365.804688 C 161.433594 373.355469 161.882813 379.457031 159.042969 388.152344 Z M 223.597656 452.441406 C 225.488281 445.28125 265.667969 354.847656 275.957031 353.128906 L 432.519531 360.605469 C 396.148438 473.285156 405.476563 451.347656 223.597656 452.441406 Z M 188.976563 354.425781 C 196.226563 349.445313 205.402344 353.183594 211.121094 356.558594 C 216.515625 373.945313 208.582031 381.960938 191.171875 376.535156 C 186.828125 369.207031 186.277344 363.3125 188.976563 354.425781 Z M 165.773438 335.140625 C 160.242188 317.605469 168.410156 310.167969 185.808594 315.066406 C 190.066406 322.496094 190.632813 328.628906 187.820313 337.375 C 178.910156 340 172.980469 339.4375 165.773438 335.140625 Z M 368.320313 538.710938 C 484.148438 539.074219 517.855469 478.839844 552.570313 399.644531 C 576.316406 345.476563 552.484375 342.539063 533.507813 329.976563 L 599.003906 296.410156 C 637.082031 270.9375 727.429688 141.105469 653.441406 111.652344 C 627.589844 101.359375 322.65625 106.328125 269.117188 106.757813 C 234.546875 240.074219 462.664063 172.03125 529.167969 194.613281 L 513.070313 239.117188 C 485.3125 286.945313 408.09375 280.914063 368.285156 280.914063 C 327.507813 280.914063 284.867188 282.128906 244.324219 280.871094 C 204.425781 279.636719 176.523438 244.652344 148.609375 259.8125 L 145.152344 307.394531 C 141.390625 328.625 63.039063 470.300781 48.226563 490.628906 C 27.050781 519.699219 -0.00390625 510.984375 -42.410156 511 L -63 538.457031 Z M 368.320313 538.710938 "/>
<path style=" stroke:none;fill-rule:evenodd;fill:rgb(0%,0%,0%);fill-opacity:1;" d="M 218.226563 97.148438 C 239.480469 68.167969 387.503906 105.714844 473.277344 75.246094 C 555.699219 45.96875 576.558594 -10.347656 605.46875 -72.695313 C 652.46875 -174.058594 586.914063 -157.386719 441.511719 -157.386719 C 371.777344 -157.386719 120.863281 -160.910156 72.8125 -156.675781 C 62.417969 -60.457031 153.925781 -72.085938 231.386719 -72.117188 C 272.773438 -72.132813 314.164063 -72.125 355.550781 -72.113281 C 376.316406 -72.109375 463.476563 -81.042969 468.636719 -63.863281 C 473.746094 -46.835938 436.589844 -12.105469 409.882813 -0.886719 C 373.644531 14.335938 222.339844 7.8125 174.082031 7.78125 C 122.347656 7.746094 111.035156 8.179688 71.765625 27.339844 L 65.613281 110.128906 C 43.636719 128.144531 12.90625 133.347656 1.558594 160.664063 C -27.945313 231.703125 -53.640625 254.628906 -135.273438 254.429688 L -151.726563 281.4375 L 123.140625 282.488281 Z M 218.226563 97.148438 "/>
<path style=" stroke:none;fill-rule:evenodd;fill:rgb(99.21875%,99.21875%,99.21875%);fill-opacity:1;" d="M 77.296875 784.101563 L 28.804688 781.40625 L 28.800781 659.28125 L -12.394531 658.847656 L -12.972656 625.917969 L 116.953125 625.894531 L 116.96875 659.015625 L 76.078125 659.46875 Z M -26.476563 626.003906 C -17.859375 632.945313 -21.808594 617.078125 -19.71875 641.753906 C -19.316406 646.46875 -20.183594 658.550781 -20.183594 664.265625 L -20.226563 782.71875 L -69.519531 782.355469 C -61.984375 790.925781 -71.421875 786.007813 -55.367188 788.652344 C -46.835938 790.058594 -28.046875 788.941406 -20.109375 785.816406 L -14.574219 782.921875 C -8.742188 780.28125 -10.894531 779.839844 -0.832031 778.398438 C 19.949219 775.421875 22.789063 787.230469 27.628906 788.414063 L 65.984375 788.207031 L 77.296875 784.101563 L 88.105469 769.34375 L 91.59375 778.816406 L 135.875 778.894531 L 145.425781 766.160156 L 150.71875 778.070313 C 151.074219 778.8125 151.929688 781.375 152.203125 780.867188 C 152.476563 780.347656 153.074219 782.878906 153.757813 783.722656 C 153.449219 760.144531 158.789063 638.183594 150.035156 626.246094 L 199.070313 626.296875 L 215.648438 626.042969 C 235.804688 625.914063 258.734375 629.960938 266.582031 645.089844 L 258.53125 697.894531 C 282.511719 715.972656 279.363281 750.605469 267.296875 763.820313 C 262.6875 768.871094 263.03125 767.199219 258.464844 770.964844 C 257.902344 771.429688 257.160156 771.96875 256.601563 772.449219 L 249.417969 779.757813 C 261.316406 782.769531 255.070313 777.40625 264.351563 778.996094 L 269.796875 780.425781 C 282.53125 783.976563 264.207031 781.714844 279.601563 783.8125 L 276.046875 625.953125 L 326.910156 625.882813 L 328.199219 748.925781 L 391.011719 748.898438 L 391.859375 775.542969 L 438.324219 625.886719 L 495.617188 626.105469 C 489.710938 620.59375 487.390625 619.652344 473.40625 619.230469 C 440.8125 618.246094 432.160156 622.746094 412.386719 625.273438 C 343.472656 634.070313 350.375 615.054688 335.71875 621.96875 C 335.371094 622.132813 334.648438 624.394531 334.417969 623.804688 C 334.15625 623.144531 333.375 625.214844 333.25 626.046875 C 333.378906 607.152344 336.160156 616.402344 337.105469 612.003906 C 337.417969 610.554688 338.917969 610.925781 339.617188 610.160156 C 318.332031 607.625 298.640625 608.820313 288.707031 600.59375 C 309.503906 587.1875 300.304688 591.132813 314.179688 591.039063 L 288.707031 591.023438 L 288.707031 556.019531 L 244.105469 556.003906 C 243.578125 578.117188 243.941406 574.007813 237.753906 581.472656 L 218.652344 581.472656 C 211.21875 566.046875 212.300781 571.578125 212.300781 556.019531 L 151.777344 556.003906 C 151.046875 562.238281 151.078125 571.808594 148.226563 577.144531 C 147.824219 577.894531 147.171875 578.539063 146.761719 579.230469 C 146.378906 579.867188 145.675781 580.484375 145.316406 581.085938 L 142.066406 588.777344 C 141.449219 592.753906 142.484375 597.726563 141.558594 603.328125 L 139.355469 612.140625 C 139.328125 611.835938 139.339844 613.027344 139.074219 613.34375 L 8.410156 619.863281 C -14.664063 619.019531 -18.832031 603.457031 -26.476563 626.003906 Z M -26.476563 626.003906 "/>
<path style=" stroke:none;fill-rule:evenodd;fill:rgb(1.960754%,1.960754%,1.960754%);fill-opacity:1;" d="M 349.355469 775.695313 C 349.71875 773.6875 358.886719 765.253906 354.183594 775.347656 C 352.914063 778.066406 347.726563 784.675781 349.355469 775.695313 Z M 495.632813 760.953125 C 506.6875 772.625 496.195313 768.324219 495.632813 769.011719 C 495.507813 768.757813 488.84375 769.714844 495.632813 760.953125 Z M 327.253906 769.628906 C 320.847656 770.671875 321.359375 763.53125 326.347656 764.160156 C 330.566406 764.695313 333.335938 768.644531 327.253906 769.628906 Z M 317.347656 719.234375 C 318.246094 720.433594 324.5 715.132813 317.347656 730.628906 C 316.046875 728.0625 315.660156 729.75 315.925781 724.167969 C 315.976563 723.089844 317.785156 720.199219 317.347656 719.234375 Z M 308.675781 660.59375 C 304.496094 667.550781 313.019531 664.945313 298.8125 667.230469 C 304.367188 659.167969 300.914063 663.414063 308.675781 660.59375 Z M 561.011719 667.765625 C 561.886719 661.625 565.777344 662.480469 571.882813 660.765625 C 567 670.6875 575.621094 665.382813 561.011719 667.765625 Z M 279.601563 783.8125 C 292.972656 782.347656 306.324219 783.433594 320.050781 782.277344 C 345.277344 780.160156 394.367188 786.511719 438.324219 782.183594 C 453.226563 734.910156 444.421875 750.882813 459.421875 743.859375 L 464.851563 683.800781 C 478.191406 736.195313 465.707031 718.066406 471.484375 736.738281 C 476.632813 753.375 477.324219 737.78125 483.890625 758.628906 C 493.832031 790.199219 475.53125 783.085938 584.320313 782.640625 L 584.265625 705.222656 L 626.164063 782.40625 L 671.089844 782.796875 L 671.089844 671.898438 C 663.347656 675.707031 670.148438 666.933594 663.71875 681.449219 L 651.632813 657.265625 L 641.132813 661.082031 C 640.59375 649.625 640.703125 656.074219 642.367188 650.390625 C 642.527344 649.835938 642.949219 649 643.101563 648.402344 C 644 644.824219 644.3125 635.878906 645.25 626.078125 L 632.617188 639.152344 L 625.96875 632.445313 L 625.984375 704.992188 C 577.492188 611.75 601.945313 625.8125 536.003906 625.835938 L 538.675781 774.753906 L 495.617188 626.105469 L 438.324219 625.886719 L 391.859375 775.542969 L 391.011719 748.898438 L 328.199219 748.925781 L 326.910156 625.882813 L 276.046875 625.953125 Z M 279.601563 783.8125 "/>
<path style=" stroke:none;fill-rule:evenodd;fill:rgb(99.609375%,99.609375%,99.609375%);fill-opacity:1;" d="M 223.597656 452.441406 C 405.476563 451.347656 396.148438 473.285156 432.519531 360.605469 L 275.957031 353.128906 C 265.667969 354.847656 225.488281 445.28125 223.597656 452.441406 Z M 223.597656 452.441406 "/>
<path style=" stroke:none;fill-rule:evenodd;fill:rgb(2.745056%,2.745056%,2.745056%);fill-opacity:1;" d="M 62.828125 764.972656 C 62.886719 765.886719 57.574219 771.292969 59.136719 766.144531 C 62.042969 756.5625 62.640625 762.167969 62.828125 764.972656 Z M 53.101563 730.472656 C 49.710938 725.890625 51.574219 732.867188 50.054688 724.984375 C 48.734375 718.140625 53.980469 719.117188 59.046875 721.535156 Z M 68.601563 680.234375 C 64.824219 688.144531 65.984375 687.476563 63.105469 688.628906 C 48.625 694.429688 53.246094 691.550781 50.347656 685.242188 Z M 77.296875 784.101563 L 76.078125 659.46875 L 116.96875 659.015625 L 116.953125 625.894531 L -12.972656 625.917969 L -12.394531 658.847656 L 28.800781 659.28125 L 28.804688 781.40625 Z M 77.296875 784.101563 "/>
<path style=" stroke:none;fill-rule:evenodd;fill:rgb(2.745056%,2.745056%,2.745056%);fill-opacity:1;" d="M 227.214844 768.394531 C 218.15625 769.347656 226.5 758.257813 228.09375 764.164063 Z M 215.578125 656.253906 C 225.257813 663.03125 227.210938 667.769531 220.898438 679.113281 C 214.722656 690.214844 214.828125 673.199219 213.671875 712.019531 C 224.476563 719.757813 234.574219 729.433594 225.632813 744.292969 C 216.175781 760.019531 218.910156 738.632813 214.148438 759.734375 C 213.5625 762.339844 213.742188 778.429688 213.621094 782.433594 L 249.417969 779.757813 L 256.601563 772.449219 C 257.160156 771.96875 257.902344 771.429688 258.464844 770.964844 C 263.03125 767.199219 262.6875 768.871094 267.296875 763.820313 C 279.363281 750.605469 282.511719 715.972656 258.53125 697.894531 L 266.582031 645.089844 C 258.734375 629.960938 235.804688 625.914063 215.648438 626.042969 Z M 215.578125 656.253906 "/>
<path style=" stroke:none;fill-rule:evenodd;fill:rgb(1.567078%,1.567078%,1.567078%);fill-opacity:1;" d="M 153.757813 783.722656 L 200.664063 782.003906 L 199.734375 655.621094 L 199.070313 626.296875 L 150.035156 626.246094 C 158.789063 638.183594 153.449219 760.144531 153.757813 783.722656 Z M 153.757813 783.722656 "/>
<path style=" stroke:none;fill-rule:evenodd;fill:rgb(98.826599%,98.826599%,98.826599%);fill-opacity:1;" d="M 160.402344 405.105469 C 153.992188 426.015625 168.28125 438.625 181.070313 426.085938 C 195.894531 411.550781 172.992188 397.1875 160.402344 405.105469 Z M 160.402344 405.105469 "/>
<path style=" stroke:none;fill-rule:evenodd;fill:rgb(98.4375%,98.4375%,98.4375%);fill-opacity:1;" d="M 78.695313 469.644531 C 73.300781 500.390625 99.050781 494.484375 103.28125 484.738281 C 111.035156 466.878906 92.964844 461.335938 78.695313 469.644531 Z M 78.695313 469.644531 "/>
<path style=" stroke:none;fill-rule:evenodd;fill:rgb(98.4375%,98.4375%,98.4375%);fill-opacity:1;" d="M 130.242188 438.777344 L 132.433594 422.304688 C 106.515625 393.941406 87.78125 451.339844 130.242188 438.777344 Z M 130.242188 438.777344 "/>
<path style=" stroke:none;fill-rule:evenodd;fill:rgb(98.826599%,98.826599%,98.826599%);fill-opacity:1;" d="M 131.222656 455.917969 L 131.398438 477.761719 C 170.453125 490.269531 157.269531 439.066406 131.222656 455.917969 Z M 131.222656 455.917969 "/>
<path style=" stroke:none;fill-rule:evenodd;fill:rgb(98.826599%,98.826599%,98.826599%);fill-opacity:1;" d="M 159.042969 388.152344 C 161.882813 379.457031 161.433594 373.355469 157.394531 365.804688 C 125.644531 356.816406 124.59375 397.671875 159.042969 388.152344 Z M 159.042969 388.152344 "/>
<path style=" stroke:none;fill-rule:evenodd;fill:rgb(98.4375%,98.4375%,98.4375%);fill-opacity:1;" d="M 188.976563 354.425781 C 186.277344 363.3125 186.828125 369.207031 191.171875 376.535156 C 208.582031 381.960938 216.515625 373.945313 211.121094 356.558594 C 205.402344 353.183594 196.226563 349.445313 188.976563 354.425781 Z M 188.976563 354.425781 "/>
<path style=" stroke:none;fill-rule:evenodd;fill:rgb(98.826599%,98.826599%,98.826599%);fill-opacity:1;" d="M 165.773438 335.140625 C 172.980469 339.4375 178.910156 340 187.820313 337.375 C 190.632813 328.628906 190.066406 322.496094 185.808594 315.066406 C 168.410156 310.167969 160.242188 317.605469 165.773438 335.140625 Z M 165.773438 335.140625 "/>
<path style=" stroke:none;fill-rule:evenodd;fill:rgb(58.396912%,58.396912%,58.396912%);fill-opacity:1;" d="M 199.734375 655.621094 C 204.925781 646.964844 203.207031 648.351563 204.179688 634.753906 C 214.367188 641.289063 209.820313 637.136719 213.488281 650.925781 L 215.578125 656.253906 L 215.648438 626.042969 L 199.070313 626.296875 Z M 199.734375 655.621094 "/>
<path style=" stroke:none;fill-rule:evenodd;fill:rgb(56.834412%,56.834412%,56.834412%);fill-opacity:1;" d="M 50.347656 685.242188 C 53.246094 691.550781 48.625 694.429688 63.105469 688.628906 C 65.984375 687.476563 64.824219 688.144531 68.601563 680.234375 Z M 50.347656 685.242188 "/>
<path style=" stroke:none;fill-rule:evenodd;fill:rgb(35.301208%,35.301208%,35.301208%);fill-opacity:1;" d="M 53.101563 730.472656 L 59.046875 721.535156 C 53.980469 719.117188 48.734375 718.140625 50.054688 724.984375 C 51.574219 732.867188 49.710938 725.890625 53.101563 730.472656 Z M 53.101563 730.472656 "/>
<path style=" stroke:none;fill-rule:evenodd;fill:rgb(72.459412%,72.459412%,72.459412%);fill-opacity:1;" d="M 561.011719 667.765625 C 575.621094 665.382813 567 670.6875 571.882813 660.765625 C 565.777344 662.480469 561.886719 661.625 561.011719 667.765625 Z M 561.011719 667.765625 "/>
<path style=" stroke:none;fill-rule:evenodd;fill:rgb(29.417419%,29.417419%,29.417419%);fill-opacity:1;" d="M 495.632813 769.011719 C 496.195313 768.324219 506.6875 772.625 495.632813 760.953125 C 488.84375 769.714844 495.507813 768.757813 495.632813 769.011719 Z M 495.632813 769.011719 "/>
<path style=" stroke:none;fill-rule:evenodd;fill:rgb(47.068787%,47.068787%,47.068787%);fill-opacity:1;" d="M 326.347656 764.160156 C 321.359375 763.53125 320.847656 770.671875 327.253906 769.628906 C 333.335938 768.644531 330.566406 764.695313 326.347656 764.160156 Z M 326.347656 764.160156 "/>
<path style=" stroke:none;fill-rule:evenodd;fill:rgb(42.358398%,42.358398%,42.358398%);fill-opacity:1;" d="M 317.347656 719.234375 C 317.785156 720.199219 315.976563 723.089844 315.925781 724.167969 C 315.660156 729.75 316.046875 728.0625 317.347656 730.628906 C 324.5 715.132813 318.246094 720.433594 317.347656 719.234375 Z M 317.347656 719.234375 "/>
<path style=" stroke:none;fill-rule:evenodd;fill:rgb(66.209412%,66.209412%,66.209412%);fill-opacity:1;" d="M 349.355469 775.695313 C 347.726563 784.675781 352.914063 778.066406 354.183594 775.347656 C 358.886719 765.253906 349.71875 773.6875 349.355469 775.695313 Z M 349.355469 775.695313 "/>
<path style=" stroke:none;fill-rule:evenodd;fill:rgb(80.859375%,80.859375%,80.859375%);fill-opacity:1;" d="M 298.8125 667.230469 C 313.019531 664.945313 304.496094 667.550781 308.675781 660.59375 C 300.914063 663.414063 304.367188 659.167969 298.8125 667.230469 Z M 298.8125 667.230469 "/>
<path style=" stroke:none;fill-rule:evenodd;fill:rgb(46.655273%,46.655273%,46.655273%);fill-opacity:1;" d="M 228.09375 764.164063 C 226.5 758.257813 218.15625 769.347656 227.214844 768.394531 Z M 228.09375 764.164063 "/>
<path style=" stroke:none;fill-rule:evenodd;fill:rgb(57.226563%,57.226563%,57.226563%);fill-opacity:1;" d="M 59.136719 766.144531 C 57.574219 771.292969 62.886719 765.886719 62.828125 764.972656 C 62.640625 762.167969 62.042969 756.5625 59.136719 766.144531 Z M 59.136719 766.144531 "/>
</g>
</svg>
